<svg id="svg" version="1.1" xmlns="http://www.w3.org/2000/svg" xmlns:xlink="http://www.w3.org/1999/xlink" width="400" height="363.1901840490798" viewBox="0, 0, 400,363.1901840490798"><g id="svgg"><path id="path0" d="M56.676 151.620 C 54.600 152.171,53.098 152.993,51.980 154.189 C 51.496 154.707,50.968 155.132,50.807 155.132 C 50.488 155.132,21.019 184.600,19.478 186.460 C 18.125 188.093,18.354 188.829,21.080 191.609 C 21.775 192.318,22.507 193.064,22.707 193.268 C 22.906 193.471,25.114 195.681,27.611 198.179 C 30.109 200.677,32.316 202.890,32.516 203.096 C 32.716 203.303,34.482 205.061,36.441 207.004 C 38.400 208.946,42.487 213.089,45.524 216.210 C 55.108 226.061,59.828 227.578,66.684 223.008 C 68.305 221.927,100.161 190.243,101.162 188.715 C 101.949 187.514,103.756 189.511,83.742 169.470 C 71.134 156.845,66.978 152.897,65.577 152.214 C 63.461 151.183,59.357 150.909,56.676 151.620 M256.494 159.150 C 255.195 159.310,252.526 159.608,250.562 159.811 C 248.053 160.070,246.595 160.415,245.657 160.970 C 244.924 161.404,243.506 161.999,242.507 162.292 C 239.421 163.198,233.678 167.590,233.619 169.090 C 233.612 169.274,233.385 169.683,233.116 169.999 C 230.196 173.419,233.585 181.549,239.125 184.414 C 239.767 184.746,240.529 185.255,240.820 185.546 C 241.111 185.837,242.223 186.474,243.290 186.963 C 244.358 187.451,245.232 188.009,245.232 188.203 C 245.232 188.397,245.399 188.556,245.604 188.556 C 245.809 188.556,247.011 189.210,248.277 190.009 C 249.543 190.808,250.700 191.462,250.850 191.462 C 250.999 191.462,251.717 191.924,252.445 192.487 C 253.174 193.051,254.342 193.741,255.041 194.020 C 258.023 195.211,259.746 197.585,259.175 199.716 C 258.238 203.209,246.843 203.930,235.241 201.231 C 231.929 200.461,231.100 200.437,230.113 201.084 L 229.147 201.717 229.331 205.599 C 229.604 211.346,230.708 213.260,233.753 213.261 C 234.771 213.262,237.893 213.505,240.690 213.802 C 259.564 215.808,277.814 212.314,282.024 205.889 C 282.342 205.404,282.837 204.771,283.125 204.484 C 287.211 200.398,284.733 193.120,277.838 188.956 C 277.089 188.504,276.476 188.003,276.476 187.844 C 276.476 187.684,275.945 187.341,275.295 187.081 C 274.646 186.821,273.431 186.147,272.596 185.584 C 271.760 185.020,270.898 184.559,270.679 184.559 C 270.461 184.559,269.246 183.906,267.981 183.106 C 266.715 182.307,265.505 181.653,265.291 181.653 C 265.077 181.653,264.682 181.449,264.413 181.199 C 264.143 180.949,263.183 180.371,262.278 179.915 C 252.394 174.927,257.825 170.203,272.024 171.436 C 285.711 172.625,284.796 172.986,284.177 166.632 C 283.616 160.873,283.063 160.344,277.092 159.852 C 265.433 158.892,263.553 158.768,261.301 158.811 C 259.956 158.837,257.793 158.989,256.494 159.150 M154.544 160.414 C 153.018 161.079,152.589 162.900,152.589 168.705 C 152.589 175.737,151.913 189.362,151.325 194.187 C 149.850 206.296,149.619 212.050,150.580 212.753 C 152.017 213.804,174.429 213.364,175.530 212.263 C 175.710 212.083,175.942 207.615,176.046 202.335 C 176.332 187.846,177.211 172.751,178.137 166.467 C 178.842 161.675,178.637 160.726,176.804 160.294 C 174.362 159.719,155.911 159.818,154.544 160.414 M195.894 160.213 C 193.921 160.680,193.314 163.081,193.292 170.496 C 193.285 173.051,193.117 176.648,192.920 178.488 C 192.723 180.329,192.401 184.696,192.206 188.193 C 191.441 201.859,191.067 206.254,190.505 208.222 C 189.132 213.026,189.683 213.249,202.943 213.255 C 216.672 213.262,216.557 213.313,216.457 207.266 C 216.437 206.067,216.618 201.817,216.859 197.820 C 217.100 193.824,217.444 187.121,217.623 182.925 C 218.036 173.246,218.574 167.490,219.308 164.898 C 219.979 162.528,219.574 161.129,217.984 160.325 C 216.955 159.805,198.023 159.709,195.894 160.213 M297.366 160.033 C 297.166 160.100,296.570 160.249,296.042 160.365 C 293.466 160.930,292.245 169.119,294.453 171.021 L 295.536 171.954 304.658 171.742 C 319.022 171.409,318.607 171.014,317.541 184.015 C 316.528 196.382,315.661 205.699,315.328 207.811 C 314.881 210.644,315.136 212.394,316.068 212.893 C 317.244 213.522,337.689 213.375,338.940 212.729 C 340.305 212.023,340.319 211.911,340.766 198.183 C 341.320 181.156,342.217 173.888,343.962 172.275 L 344.871 171.435 355.571 171.549 C 368.353 171.684,367.441 172.048,367.754 166.694 C 368.039 161.828,367.753 160.465,366.388 160.173 C 365.304 159.941,298.051 159.805,297.366 160.033 " stroke="none" fill="#f30f10" fill-rule="evenodd"></path><path id="path1" d="M72.171 135.402 C 72.344 136.088,84.759 148.821,93.046 156.812 C 94.523 158.236,97.233 160.933,99.068 162.807 C 104.659 168.513,107.175 170.452,109.618 170.934 C 110.577 171.124,110.585 171.115,109.769 170.759 C 108.167 170.059,103.002 166.272,101.907 164.995 C 101.308 164.296,97.629 160.575,93.733 156.727 C 85.603 148.699,81.370 144.467,77.603 140.599 C 76.143 139.101,74.636 137.624,74.255 137.317 C 73.874 137.011,73.204 136.275,72.767 135.682 C 72.109 134.793,72.006 134.744,72.171 135.402 M113.261 171.374 C 113.710 171.460,114.446 171.460,114.896 171.374 C 115.345 171.287,114.977 171.216,114.078 171.216 C 113.179 171.216,112.811 171.287,113.261 171.374 M243.778 187.829 C 243.778 188.029,244.115 188.193,244.526 188.193 C 244.938 188.193,245.173 188.029,245.050 187.829 C 244.926 187.629,244.590 187.466,244.302 187.466 C 244.014 187.466,243.778 187.629,243.778 187.829 M112.443 205.267 C 108.480 206.341,104.829 208.427,102.271 211.079 C 101.471 211.908,100.429 212.943,99.953 213.378 C 99.478 213.813,98.334 214.972,97.410 215.954 C 96.487 216.936,95.422 217.998,95.043 218.315 C 94.665 218.632,94.093 219.204,93.772 219.586 C 93.451 219.968,92.307 221.112,91.229 222.129 C 90.152 223.146,88.517 224.770,87.596 225.738 C 86.675 226.706,82.775 230.660,78.928 234.525 C 72.992 240.490,71.935 241.717,71.935 242.633 C 71.935 243.743,71.733 243.531,88.647 260.247 C 90.345 261.926,92.504 264.098,93.444 265.074 C 107.571 279.737,111.224 281.621,118.444 277.970 C 121.652 276.347,122.072 276.007,126.726 271.255 C 128.462 269.483,130.191 267.766,130.569 267.441 C 130.948 267.115,131.601 266.454,132.023 265.971 C 132.444 265.489,137.087 260.747,142.341 255.435 C 153.530 244.123,153.403 244.259,153.970 242.940 C 154.614 241.442,153.950 240.457,149.194 235.854 C 147.383 234.101,135.389 222.054,126.553 213.112 C 120.385 206.871,115.844 204.346,112.443 205.267 " stroke="none" fill="#175b7f" fill-rule="evenodd"></path><path id="path2" d="M0.000 181.653 L 0.000 363.306 200.000 363.306 L 400.000 363.306 400.000 181.653 L 400.000 0.000 200.000 0.000 L 0.000 0.000 0.000 181.653 M119.304 96.639 C 121.404 97.702,122.886 98.818,124.852 100.816 C 126.328 102.315,127.695 103.542,127.891 103.542 C 128.087 103.542,128.247 103.782,128.247 104.074 C 128.247 104.367,128.615 104.802,129.064 105.041 C 129.775 105.419,133.553 108.937,135.150 110.707 C 135.450 111.039,136.226 111.800,136.876 112.398 C 137.525 112.996,138.056 113.673,138.056 113.902 C 138.056 114.131,138.428 114.518,138.883 114.761 C 139.337 115.004,140.032 115.685,140.427 116.274 C 140.821 116.864,141.349 117.346,141.599 117.347 C 141.848 117.347,142.053 117.504,142.053 117.696 C 142.053 118.130,145.661 121.733,146.927 122.562 C 147.443 122.901,147.866 123.419,147.866 123.714 C 147.866 124.009,148.000 124.251,148.163 124.251 C 148.627 124.251,152.432 127.989,152.696 128.704 C 152.825 129.056,153.342 129.530,153.844 129.759 C 154.346 129.988,154.963 130.640,155.215 131.209 C 155.466 131.778,155.790 132.243,155.934 132.243 C 156.546 132.243,156.989 133.831,156.759 135.197 C 156.541 136.483,155.524 137.642,147.558 145.682 C 142.632 150.653,136.312 157.124,133.515 160.062 C 123.764 170.302,122.740 171.182,116.985 174.260 C 112.330 176.749,105.099 173.415,97.595 165.321 C 96.770 164.431,95.710 163.368,95.240 162.959 C 94.770 162.551,94.119 161.889,93.793 161.490 C 93.467 161.090,90.750 158.392,87.757 155.495 C 78.362 146.402,70.623 138.435,69.846 137.055 C 68.387 134.467,70.695 131.421,83.560 118.954 C 89.042 113.643,92.729 109.971,97.280 105.294 C 102.438 99.994,104.502 98.221,106.165 97.663 C 106.820 97.443,107.613 97.043,107.926 96.774 C 110.331 94.705,115.365 94.646,119.304 96.639 M62.954 149.698 C 65.688 150.204,68.880 152.332,71.984 155.721 C 72.510 156.296,74.309 158.096,75.980 159.720 C 77.652 161.345,79.875 163.552,80.921 164.625 C 81.967 165.698,83.112 166.847,83.464 167.178 C 83.817 167.510,84.972 168.695,86.031 169.812 C 87.090 170.930,88.112 171.844,88.302 171.844 C 88.491 171.844,88.647 172.021,88.647 172.238 C 88.647 172.685,92.582 176.567,93.035 176.567 C 93.196 176.567,93.618 177.057,93.972 177.657 C 94.327 178.256,94.728 178.747,94.865 178.747 C 95.003 178.747,95.907 179.579,96.876 180.597 C 97.845 181.614,99.741 183.580,101.090 184.964 C 103.700 187.643,103.944 188.321,102.970 190.189 C 102.462 191.164,92.208 201.769,86.681 207.036 C 85.499 208.162,83.783 209.871,82.866 210.834 C 81.949 211.797,79.665 214.086,77.790 215.920 C 75.916 217.755,74.117 219.561,73.794 219.935 C 63.212 232.171,53.957 231.639,42.635 218.145 C 41.806 217.157,35.705 210.896,29.078 204.231 C 16.806 191.889,16.339 191.330,16.362 188.986 C 16.383 186.779,16.925 186.147,29.024 174.226 C 33.497 169.819,38.320 164.986,39.741 163.488 C 49.572 153.120,53.132 150.358,57.461 149.738 C 60.688 149.276,60.672 149.276,62.954 149.698 M271.208 157.885 C 273.406 158.002,275.695 158.236,276.294 158.406 C 276.894 158.576,278.435 158.827,279.719 158.964 C 284.567 159.483,285.198 160.444,285.470 167.721 C 285.778 175.941,284.065 177.250,275.074 175.668 C 271.962 175.120,262.242 174.855,261.159 175.288 C 260.265 175.646,261.653 178.090,263.160 178.815 C 265.935 180.149,269.451 182.128,270.118 182.730 C 270.518 183.091,271.253 183.506,271.753 183.652 C 272.252 183.798,273.152 184.266,273.751 184.692 C 274.351 185.119,275.465 185.786,276.229 186.174 C 276.992 186.563,277.765 187.159,277.947 187.498 C 278.128 187.838,278.785 188.293,279.407 188.510 C 280.028 188.726,280.623 189.234,280.728 189.638 C 280.834 190.042,281.127 190.372,281.379 190.372 C 282.058 190.372,284.934 193.917,285.948 196.004 C 287.595 199.395,286.606 203.860,283.575 206.708 C 283.067 207.184,282.652 207.746,282.652 207.956 C 282.652 208.388,277.915 213.261,277.495 213.261 C 277.345 213.261,276.360 213.663,275.305 214.155 C 272.095 215.653,267.759 216.898,264.496 217.260 C 262.793 217.449,260.254 217.781,258.856 217.998 C 256.533 218.359,248.910 218.243,246.140 217.805 C 245.540 217.710,242.064 217.462,238.415 217.254 C 228.673 216.697,226.831 215.214,226.138 207.366 C 225.454 199.622,229.181 197.233,237.421 200.134 C 241.157 201.449,255.041 201.564,255.041 200.279 C 255.041 199.135,254.094 197.275,253.512 197.275 C 252.831 197.275,250.935 196.421,250.170 195.769 C 249.537 195.230,245.942 193.068,243.960 192.035 C 239.587 189.756,233.773 185.516,232.121 183.401 C 229.870 180.518,228.306 175.895,229.026 174.249 C 229.298 173.625,229.812 172.298,230.168 171.299 C 231.570 167.364,236.088 163.130,240.509 161.609 C 241.608 161.231,243.196 160.588,244.039 160.180 C 245.432 159.506,249.479 158.698,256.312 157.731 C 258.748 157.387,262.519 157.426,271.208 157.885 M178.669 159.516 C 179.126 159.802,179.592 160.399,179.705 160.842 C 180.031 162.127,179.120 177.170,178.510 180.563 C 177.823 184.386,177.326 194.532,177.307 205.109 L 177.293 213.125 176.294 214.042 C 175.745 214.546,174.478 215.432,173.479 216.010 L 171.662 217.062 161.126 217.060 C 145.629 217.058,145.858 217.332,147.827 201.091 C 148.812 192.962,149.379 184.246,149.646 173.115 C 149.849 164.640,149.915 163.960,150.634 162.943 C 151.057 162.343,151.518 161.485,151.657 161.035 C 151.921 160.187,152.787 159.580,154.384 159.128 C 156.239 158.601,177.758 158.946,178.669 159.516 M219.488 159.468 C 221.396 160.397,221.668 162.368,220.552 167.183 C 219.617 171.216,218.861 186.417,218.377 210.899 C 218.352 212.161,218.104 212.580,216.496 214.087 C 213.213 217.161,213.719 217.059,201.783 217.068 C 189.804 217.076,190.086 217.135,188.205 214.262 L 186.990 212.406 187.576 209.291 C 187.899 207.578,188.248 204.705,188.353 202.906 C 188.699 196.959,189.258 190.230,189.636 187.466 C 190.088 184.154,190.735 172.649,190.738 167.874 C 190.741 161.564,192.098 159.436,196.367 159.046 C 200.079 158.707,218.619 159.045,219.488 159.468 M368.061 159.725 C 369.146 160.810,369.390 162.675,369.046 167.255 C 368.462 175.020,367.544 175.542,354.632 175.460 C 343.602 175.389,344.065 175.076,343.327 183.106 C 343.098 185.604,342.763 189.119,342.584 190.917 C 342.405 192.716,342.153 198.193,342.024 203.088 C 341.798 211.712,341.423 214.351,340.426 214.351 C 340.276 214.351,339.746 214.758,339.247 215.257 C 337.560 216.944,336.259 217.123,326.067 217.069 C 312.136 216.995,311.149 216.337,312.563 208.065 C 313.532 202.394,314.868 180.064,314.384 177.641 C 313.925 175.346,313.692 175.297,303.737 175.416 C 293.073 175.543,292.515 175.422,291.323 172.726 C 289.704 169.067,291.133 161.184,293.670 159.776 C 295.071 158.998,297.557 158.945,332.687 158.946 L 367.282 158.946 368.061 159.725 M382.268 163.986 C 382.207 164.560,381.940 165.378,381.676 165.803 C 380.710 167.354,380.650 168.608,381.499 169.511 C 382.746 170.839,382.171 171.770,380.735 170.747 C 379.904 170.155,379.275 170.003,378.179 170.130 C 376.329 170.344,376.140 170.001,375.968 166.123 C 375.813 162.639,375.658 162.783,379.473 162.874 L 382.380 162.943 382.268 163.986 M118.619 204.089 C 119.219 204.394,119.791 204.744,119.891 204.868 C 119.991 204.992,120.693 205.419,121.452 205.816 C 122.211 206.214,123.073 206.907,123.368 207.357 C 123.663 207.807,124.105 208.175,124.350 208.175 C 124.595 208.176,125.117 208.657,125.511 209.244 C 125.904 209.831,126.513 210.386,126.864 210.478 C 127.215 210.570,127.849 211.233,128.274 211.953 C 128.698 212.672,129.239 213.261,129.476 213.261 C 129.713 213.261,130.197 213.751,130.551 214.351 C 130.905 214.950,131.323 215.441,131.480 215.441 C 131.637 215.441,132.514 216.217,133.429 217.166 C 139.852 223.832,148.994 232.879,149.306 232.879 C 149.513 232.879,149.682 233.013,149.682 233.177 C 149.682 233.341,151.167 235.001,152.983 236.868 C 158.750 242.797,159.295 241.516,144.668 256.415 C 120.674 280.855,121.311 280.264,117.576 281.577 C 111.307 283.780,106.261 282.136,100.347 275.963 C 99.407 274.981,98.236 273.837,97.745 273.420 C 97.253 273.002,96.354 272.097,95.746 271.407 C 95.139 270.718,91.866 267.448,88.473 264.141 C 79.753 255.640,71.688 247.493,70.218 245.700 C 67.590 242.494,67.462 242.654,91.262 219.221 C 93.920 216.604,97.321 213.158,98.819 211.563 C 101.367 208.851,105.741 205.268,106.503 205.268 C 106.689 205.268,107.329 204.907,107.926 204.466 C 109.835 203.054,116.143 202.832,118.619 204.089 " stroke="none" fill="#fbfbfb" fill-rule="evenodd"></path><path id="path3" d="M109.924 95.761 C 109.138 96.049,108.239 96.505,107.926 96.774 C 107.613 97.043,106.820 97.443,106.165 97.663 C 104.502 98.221,102.438 99.994,97.280 105.294 C 92.729 109.971,89.042 113.643,83.560 118.954 C 70.695 131.421,68.387 134.467,69.846 137.055 C 70.623 138.435,78.362 146.402,87.757 155.495 C 90.750 158.392,93.467 161.090,93.793 161.490 C 94.119 161.889,94.770 162.551,95.240 162.959 C 95.710 163.368,96.770 164.431,97.595 165.321 C 105.099 173.415,112.330 176.749,116.985 174.260 C 122.740 171.182,123.764 170.302,133.515 160.062 C 136.312 157.124,142.632 150.653,147.558 145.682 C 155.524 137.642,156.541 136.483,156.759 135.197 C 156.989 133.831,156.546 132.243,155.934 132.243 C 155.790 132.243,155.466 131.778,155.215 131.209 C 154.963 130.640,154.346 129.988,153.844 129.759 C 153.342 129.530,152.825 129.056,152.696 128.704 C 152.432 127.989,148.627 124.251,148.163 124.251 C 148.000 124.251,147.866 124.009,147.866 123.714 C 147.866 123.419,147.443 122.901,146.927 122.562 C 145.661 121.733,142.053 118.130,142.053 117.696 C 142.053 117.504,141.848 117.347,141.599 117.347 C 141.349 117.346,140.821 116.864,140.427 116.274 C 140.032 115.685,139.337 115.004,138.883 114.761 C 138.428 114.518,138.056 114.131,138.056 113.902 C 138.056 113.673,137.525 112.996,136.876 112.398 C 136.226 111.800,135.450 111.039,135.150 110.707 C 133.553 108.937,129.775 105.419,129.064 105.041 C 128.615 104.802,128.247 104.367,128.247 104.074 C 128.247 103.782,128.087 103.542,127.891 103.542 C 127.695 103.542,126.328 102.315,124.852 100.816 C 119.989 95.873,114.600 94.048,109.924 95.761 M116.901 97.775 C 118.246 98.400,119.755 99.090,120.254 99.310 C 121.258 99.751,152.668 130.963,153.913 132.756 C 154.789 134.018,154.513 134.898,152.589 136.978 C 152.089 137.518,151.419 138.267,151.100 138.644 C 150.781 139.020,147.557 142.219,143.936 145.752 C 140.315 149.285,136.593 153.045,135.665 154.108 C 133.828 156.212,124.187 165.953,122.320 167.591 C 117.502 171.818,111.668 172.574,106.739 169.612 C 104.557 168.301,103.744 167.580,99.068 162.807 C 97.233 160.933,94.523 158.236,93.046 156.812 C 81.846 146.013,72.297 136.059,72.093 134.971 C 71.880 133.835,92.058 112.625,93.352 112.625 C 93.562 112.625,93.733 112.436,93.733 112.205 C 93.733 111.794,96.418 108.876,100.168 105.211 C 104.009 101.458,107.303 98.819,108.148 98.819 C 108.428 98.819,109.346 98.468,110.187 98.038 C 111.755 97.237,113.178 96.726,113.995 96.671 C 114.249 96.653,115.557 97.150,116.901 97.775 M57.461 149.738 C 53.132 150.358,49.572 153.120,39.741 163.488 C 38.320 164.986,33.497 169.819,29.024 174.226 C 16.925 186.147,16.383 186.779,16.362 188.986 C 16.339 191.330,16.806 191.889,29.078 204.231 C 35.705 210.896,41.806 217.157,42.635 218.145 C 53.957 231.639,63.212 232.171,73.794 219.935 C 74.117 219.561,75.916 217.755,77.790 215.920 C 79.665 214.086,81.949 211.797,82.866 210.834 C 83.783 209.871,85.499 208.162,86.681 207.036 C 92.208 201.769,102.462 191.164,102.970 190.189 C 103.944 188.321,103.700 187.643,101.090 184.964 C 99.741 183.580,97.845 181.614,96.876 180.597 C 95.907 179.579,95.003 178.747,94.865 178.747 C 94.728 178.747,94.327 178.256,93.972 177.657 C 93.618 177.057,93.196 176.567,93.035 176.567 C 92.582 176.567,88.647 172.685,88.647 172.238 C 88.647 172.021,88.491 171.844,88.302 171.844 C 88.112 171.844,87.090 170.930,86.031 169.812 C 84.972 168.695,83.817 167.510,83.464 167.178 C 83.112 166.847,81.967 165.698,80.921 164.625 C 79.875 163.552,77.652 161.345,75.980 159.720 C 74.309 158.096,72.510 156.296,71.984 155.721 C 68.880 152.332,65.688 150.204,62.954 149.698 C 60.672 149.276,60.688 149.276,57.461 149.738 M65.577 152.214 C 66.978 152.897,71.134 156.845,83.742 169.470 C 103.756 189.511,101.949 187.514,101.162 188.715 C 100.161 190.243,68.305 221.927,66.684 223.008 C 59.828 227.578,55.108 226.061,45.524 216.210 C 42.487 213.089,38.400 208.946,36.441 207.004 C 34.482 205.061,32.716 203.303,32.516 203.096 C 32.316 202.890,30.109 200.677,27.611 198.179 C 25.114 195.681,22.906 193.471,22.707 193.268 C 22.507 193.064,21.775 192.318,21.080 191.609 C 18.354 188.829,18.125 188.093,19.478 186.460 C 21.019 184.600,50.488 155.132,50.807 155.132 C 50.968 155.132,51.496 154.707,51.980 154.189 C 54.754 151.220,61.521 150.237,65.577 152.214 M256.312 157.731 C 249.479 158.698,245.432 159.506,244.039 160.180 C 243.196 160.588,241.608 161.231,240.509 161.609 C 236.088 163.130,231.570 167.364,230.168 171.299 C 229.812 172.298,229.298 173.625,229.026 174.249 C 228.306 175.895,229.870 180.518,232.121 183.401 C 233.773 185.516,239.587 189.756,243.960 192.035 C 245.942 193.068,249.537 195.230,250.170 195.769 C 250.935 196.421,252.831 197.275,253.512 197.275 C 254.094 197.275,255.041 199.135,255.041 200.279 C 255.041 201.564,241.157 201.449,237.421 200.134 C 229.181 197.233,225.454 199.622,226.138 207.366 C 226.831 215.214,228.673 216.697,238.415 217.254 C 242.064 217.462,245.540 217.710,246.140 217.805 C 248.910 218.243,256.533 218.359,258.856 217.998 C 260.254 217.781,262.793 217.449,264.496 217.260 C 267.759 216.898,272.095 215.653,275.305 214.155 C 276.360 213.663,277.345 213.261,277.495 213.261 C 277.915 213.261,282.652 208.388,282.652 207.956 C 282.652 207.746,283.067 207.184,283.575 206.708 C 286.606 203.860,287.595 199.395,285.948 196.004 C 284.934 193.917,282.058 190.372,281.379 190.372 C 281.127 190.372,280.834 190.042,280.728 189.638 C 280.623 189.234,280.028 188.726,279.407 188.510 C 278.785 188.293,278.128 187.838,277.947 187.498 C 277.765 187.159,276.992 186.563,276.229 186.174 C 275.465 185.786,274.351 185.119,273.751 184.692 C 273.152 184.266,272.252 183.798,271.753 183.652 C 271.253 183.506,270.518 183.091,270.118 182.730 C 269.451 182.128,265.935 180.149,263.160 178.815 C 261.653 178.090,260.265 175.646,261.159 175.288 C 262.242 174.855,271.962 175.120,275.074 175.668 C 284.065 177.250,285.778 175.941,285.470 167.721 C 285.198 160.444,284.567 159.483,279.719 158.964 C 278.435 158.827,276.894 158.576,276.294 158.406 C 273.974 157.748,259.619 157.263,256.312 157.731 M154.384 159.128 C 152.787 159.580,151.921 160.187,151.657 161.035 C 151.518 161.485,151.057 162.343,150.634 162.943 C 149.915 163.960,149.849 164.640,149.646 173.115 C 149.379 184.246,148.812 192.962,147.827 201.091 C 145.858 217.332,145.629 217.058,161.126 217.060 L 171.662 217.062 173.479 216.010 C 174.478 215.432,175.745 214.546,176.294 214.042 L 177.293 213.125 177.307 205.109 C 177.326 194.532,177.823 184.386,178.510 180.563 C 179.120 177.170,180.031 162.127,179.705 160.842 C 179.261 159.093,178.626 159.000,166.576 158.930 C 160.381 158.894,154.895 158.983,154.384 159.128 M196.367 159.046 C 192.098 159.436,190.741 161.564,190.738 167.874 C 190.735 172.649,190.088 184.154,189.636 187.466 C 189.258 190.230,188.699 196.959,188.353 202.906 C 188.248 204.705,187.899 207.578,187.576 209.291 L 186.990 212.406 188.205 214.262 C 190.086 217.135,189.804 217.076,201.783 217.068 C 213.719 217.059,213.213 217.161,216.496 214.087 C 218.104 212.580,218.352 212.161,218.377 210.899 C 218.861 186.417,219.617 171.216,220.552 167.183 C 221.668 162.368,221.396 160.397,219.488 159.468 C 218.619 159.045,200.079 158.707,196.367 159.046 M268.386 159.141 C 282.676 160.300,281.817 160.139,283.137 161.906 C 284.027 163.097,284.754 170.021,284.132 171.386 C 283.656 172.429,283.468 172.430,272.024 171.436 C 257.825 170.203,252.394 174.927,262.278 179.915 C 263.183 180.371,264.143 180.949,264.413 181.199 C 264.682 181.449,265.077 181.653,265.291 181.653 C 265.505 181.653,266.715 182.307,267.981 183.106 C 269.246 183.906,270.461 184.559,270.679 184.559 C 270.898 184.559,271.760 185.020,272.596 185.584 C 273.431 186.147,274.646 186.821,275.295 187.081 C 275.945 187.341,276.476 187.684,276.476 187.844 C 276.476 188.003,277.089 188.504,277.838 188.956 C 284.733 193.120,287.211 200.398,283.125 204.484 C 282.837 204.771,282.342 205.404,282.024 205.889 C 277.814 212.314,259.564 215.808,240.690 213.802 C 237.893 213.505,234.771 213.262,233.753 213.261 C 230.708 213.260,229.604 211.346,229.331 205.599 L 229.147 201.717 230.113 201.084 C 231.100 200.437,231.929 200.461,235.241 201.231 C 246.843 203.930,258.238 203.209,259.175 199.716 C 259.746 197.585,258.023 195.211,255.041 194.020 C 254.342 193.741,253.174 193.051,252.445 192.487 C 251.717 191.924,250.999 191.462,250.850 191.462 C 250.700 191.462,249.535 190.804,248.260 189.998 C 246.985 189.193,245.455 188.437,244.860 188.318 C 244.265 188.199,243.778 187.879,243.778 187.607 C 243.778 187.335,243.247 186.882,242.598 186.601 C 241.948 186.320,241.090 185.828,240.690 185.507 C 239.581 184.616,237.238 183.107,236.950 183.099 C 236.714 183.091,235.842 182.003,233.687 179.026 C 231.719 176.309,231.444 171.957,233.116 169.999 C 233.385 169.683,233.612 169.274,233.619 169.090 C 233.678 167.590,239.421 163.198,242.507 162.292 C 243.506 161.999,244.924 161.404,245.657 160.970 C 246.595 160.415,248.053 160.070,250.562 159.811 C 252.526 159.608,255.195 159.310,256.494 159.150 C 259.962 158.721,263.176 158.718,268.386 159.141 M296.276 159.141 C 292.564 159.542,290.913 162.083,290.702 167.719 C 290.425 175.095,291.222 175.565,303.737 175.416 C 313.692 175.297,313.925 175.346,314.384 177.641 C 314.868 180.064,313.532 202.394,312.563 208.065 C 311.149 216.337,312.136 216.995,326.067 217.069 C 336.259 217.123,337.560 216.944,339.247 215.257 C 339.746 214.758,340.276 214.351,340.426 214.351 C 341.423 214.351,341.798 211.712,342.024 203.088 C 342.153 198.193,342.405 192.716,342.584 190.917 C 342.763 189.119,343.098 185.604,343.327 183.106 C 344.065 175.076,343.602 175.389,354.632 175.460 C 367.544 175.542,368.462 175.020,369.046 167.255 C 369.390 162.675,369.146 160.810,368.061 159.725 L 367.282 158.946 332.687 158.946 C 313.660 158.946,297.275 159.033,296.276 159.141 M176.804 160.294 C 178.637 160.726,178.842 161.675,178.137 166.467 C 177.211 172.751,176.332 187.846,176.046 202.335 C 175.942 207.615,175.710 212.083,175.530 212.263 C 174.429 213.364,152.017 213.804,150.580 212.753 C 149.619 212.050,149.850 206.296,151.325 194.187 C 151.913 189.362,152.589 175.737,152.589 168.705 C 152.589 162.900,153.018 161.079,154.544 160.414 C 155.911 159.818,174.362 159.719,176.804 160.294 M217.984 160.325 C 219.574 161.129,219.979 162.528,219.308 164.898 C 218.574 167.490,218.036 173.246,217.623 182.925 C 217.444 187.121,217.100 193.824,216.859 197.820 C 216.618 201.817,216.437 206.067,216.457 207.266 C 216.557 213.313,216.672 213.262,202.943 213.255 C 189.683 213.249,189.132 213.026,190.505 208.222 C 191.067 206.254,191.441 201.859,192.206 188.193 C 192.401 184.696,192.723 180.329,192.920 178.488 C 193.117 176.648,193.285 173.051,193.292 170.496 C 193.304 166.297,193.911 161.281,194.476 160.716 C 195.386 159.806,216.270 159.458,217.984 160.325 M366.388 160.173 C 367.753 160.465,368.039 161.828,367.754 166.694 C 367.441 172.048,368.353 171.684,355.571 171.549 L 344.871 171.435 343.962 172.275 C 342.217 173.888,341.320 181.156,340.766 198.183 C 340.319 211.911,340.305 212.023,338.940 212.729 C 337.689 213.375,317.244 213.522,316.068 212.893 C 315.136 212.394,314.881 210.644,315.328 207.811 C 315.661 205.699,316.528 196.382,317.541 184.015 C 318.607 171.014,319.022 171.409,304.658 171.742 L 295.536 171.954 294.453 171.021 C 292.245 169.119,293.466 160.930,296.042 160.365 C 296.570 160.249,297.166 160.100,297.366 160.033 C 298.051 159.805,365.304 159.941,366.388 160.173 M376.201 162.965 C 375.768 163.156,375.946 168.826,376.413 169.708 C 376.647 170.151,377.087 170.256,378.179 170.130 C 379.275 170.003,379.904 170.155,380.735 170.747 C 382.171 171.770,382.746 170.839,381.499 169.511 C 380.650 168.608,380.710 167.354,381.676 165.803 C 381.940 165.378,382.207 164.560,382.268 163.986 L 382.380 162.943 379.473 162.874 C 377.875 162.836,376.402 162.877,376.201 162.965 M110.727 203.411 C 109.783 203.550,108.522 204.025,107.926 204.466 C 107.329 204.907,106.689 205.268,106.503 205.268 C 105.741 205.268,101.367 208.851,98.819 211.563 C 97.321 213.158,93.920 216.604,91.262 219.221 C 67.462 242.654,67.590 242.494,70.218 245.700 C 71.688 247.493,79.753 255.640,88.473 264.141 C 91.866 267.448,95.139 270.718,95.746 271.407 C 96.354 272.097,97.253 273.002,97.745 273.420 C 98.236 273.837,99.407 274.981,100.347 275.963 C 106.261 282.136,111.307 283.780,117.576 281.577 C 121.311 280.264,120.674 280.855,144.668 256.415 C 159.295 241.516,158.750 242.797,152.983 236.868 C 151.167 235.001,149.682 233.341,149.682 233.177 C 149.682 233.013,149.513 232.879,149.306 232.879 C 148.994 232.879,139.852 223.832,133.429 217.166 C 132.514 216.217,131.637 215.441,131.480 215.441 C 131.323 215.441,130.905 214.950,130.551 214.351 C 130.197 213.751,129.713 213.261,129.476 213.261 C 129.239 213.261,128.698 212.672,128.274 211.953 C 127.849 211.233,127.215 210.570,126.864 210.478 C 126.513 210.386,125.904 209.831,125.511 209.244 C 125.117 208.657,124.595 208.176,124.350 208.175 C 124.105 208.175,123.663 207.807,123.368 207.357 C 123.073 206.907,122.211 206.214,121.452 205.816 C 120.693 205.419,119.991 204.992,119.891 204.868 C 118.938 203.686,114.088 202.915,110.727 203.411 M118.636 206.710 C 121.272 207.926,122.049 208.555,126.553 213.112 C 135.389 222.054,147.383 234.101,149.194 235.854 C 153.950 240.457,154.614 241.442,153.970 242.940 C 153.403 244.259,153.530 244.123,142.341 255.435 C 137.087 260.747,132.444 265.489,132.023 265.971 C 131.601 266.454,130.948 267.115,130.569 267.441 C 130.191 267.766,128.462 269.483,126.726 271.255 C 122.072 276.007,121.652 276.347,118.444 277.970 C 111.224 281.621,107.571 279.737,93.444 265.074 C 92.504 264.098,90.345 261.926,88.647 260.247 C 71.733 243.531,71.935 243.743,71.935 242.633 C 71.935 241.717,72.992 240.490,78.928 234.525 C 82.775 230.660,86.675 226.706,87.596 225.738 C 88.517 224.770,90.152 223.146,91.229 222.129 C 92.307 221.112,93.451 219.968,93.772 219.586 C 94.093 219.204,94.665 218.632,95.043 218.315 C 95.422 217.998,96.487 216.936,97.410 215.954 C 98.334 214.972,99.478 213.813,99.953 213.378 C 100.429 212.943,101.471 211.908,102.271 211.079 C 104.829 208.427,108.480 206.341,112.443 205.267 C 113.968 204.854,115.269 205.157,118.636 206.710 " stroke="none" fill="#9ba6ab" fill-rule="evenodd"></path><path id="path4" d="M112.625 96.979 C 112.125 97.132,111.028 97.608,110.187 98.038 C 109.346 98.468,108.428 98.819,108.148 98.819 C 107.303 98.819,104.009 101.458,100.168 105.211 C 96.418 108.876,93.733 111.794,93.733 112.205 C 93.733 112.436,93.562 112.625,93.352 112.625 C 92.846 112.625,71.935 133.631,71.935 134.140 C 71.935 134.641,73.724 137.045,74.405 137.460 C 74.687 137.631,76.119 139.021,77.587 140.548 C 80.998 144.095,84.902 148.007,93.733 156.727 C 97.629 160.575,101.308 164.296,101.907 164.995 C 106.252 170.063,114.908 172.953,117.953 170.352 C 118.320 170.040,119.143 169.577,119.782 169.324 C 120.422 169.071,121.566 168.295,122.325 167.600 C 125.458 164.731,132.129 158.018,134.702 155.148 C 136.216 153.458,140.394 149.207,143.987 145.702 C 147.580 142.196,150.781 139.020,151.100 138.644 C 151.419 138.267,152.089 137.518,152.589 136.978 C 154.513 134.898,154.789 134.018,153.913 132.756 C 152.668 130.963,121.258 99.751,120.254 99.310 C 119.755 99.090,118.246 98.400,116.901 97.775 C 114.330 96.581,114.082 96.534,112.625 96.979 " stroke="none" fill="#19b409" fill-rule="evenodd"></path></g></svg>